<?xml version="1.0" encoding="UTF-8" standalone="no"?>
<!-- Created with Inkscape (http://www.inkscape.org/) -->

<svg
   width="1000mm"
   height="420mm"
   viewBox="0 0 1000 420"
   version="1.1"
   id="svg5"
   xml:space="preserve"
   sodipodi:docname="drawing.svg"
   inkscape:version="1.2.2 (b0a84865, 2022-12-01)"
   xmlns:inkscape="http://www.inkscape.org/namespaces/inkscape"
   xmlns:sodipodi="http://sodipodi.sourceforge.net/DTD/sodipodi-0.dtd"
   xmlns="http://www.w3.org/2000/svg"
   xmlns:svg="http://www.w3.org/2000/svg"><sodipodi:namedview
     id="namedview7"
     pagecolor="#ffffff"
     bordercolor="#000000"
     borderopacity="0.25"
     inkscape:showpageshadow="2"
     inkscape:pageopacity="0.0"
     inkscape:pagecheckerboard="0"
     inkscape:deskcolor="#d1d1d1"
     inkscape:document-units="px"
     showgrid="false"
     inkscape:zoom="0.15836968"
     inkscape:cx="1297.5969"
     inkscape:cy="391.48908"
     inkscape:window-width="1352"
     inkscape:window-height="844"
     inkscape:window-x="0"
     inkscape:window-y="34"
     inkscape:window-maximized="0"
     inkscape:current-layer="layer1" /><defs
     id="defs2"><rect
       x="2777.7606"
       y="627.84999"
       width="623.09355"
       height="599.31136"
       id="rect380" /><rect
       x="2948.9924"
       y="485.15681"
       width="499.42613"
       height="703.95302"
       id="rect374" /><rect
       x="2968.0182"
       y="566.01628"
       width="442.34886"
       height="684.92727"
       id="rect364" /><rect
       x="2920.4538"
       y="604.0678"
       width="342.46363"
       height="523.20833"
       id="rect358" /><linearGradient
       id="SVGID_3_"
       gradientUnits="userSpaceOnUse"
       x1="64"
       x2="64"
       y1="20.7166"
       y2="108.7021"><stop
         offset="0.4506"
         style="stop-color:#FEE133"
         id="stop4924" /><stop
         offset="0.5441"
         style="stop-color:#FDD831"
         id="stop4926" /><stop
         offset="0.6975"
         style="stop-color:#FABF2A"
         id="stop4928" /><stop
         offset="0.837"
         style="stop-color:#F6A323"
         id="stop4930" /></linearGradient><linearGradient
       id="SVGID_4_"
       gradientUnits="userSpaceOnUse"
       x1="14.6154"
       x2="46.992298"
       y1="115.8002"
       y2="64.922203"><stop
         offset="7.605441e-03"
         style="stop-color:#F6A323"
         id="stop4945" /><stop
         offset="0.0255"
         style="stop-color:#F7A724"
         id="stop4947" /><stop
         offset="0.1452"
         style="stop-color:#FAC12B"
         id="stop4949" /><stop
         offset="0.2697"
         style="stop-color:#FCD32F"
         id="stop4951" /><stop
         offset="0.4008"
         style="stop-color:#FEDE32"
         id="stop4953" /><stop
         offset="0.5494"
         style="stop-color:#FEE133"
         id="stop4955" /></linearGradient></defs><g
     inkscape:label="Layer 1"
     inkscape:groupmode="layer"
     id="layer1"><g
       id="logo---pub.dev"
       style="fill:none;fill-rule:evenodd;stroke:none;stroke-width:1"
       transform="matrix(2.0992667,0,0,2.0992667,50.136876,136.52625)"><path
         d="M 13.8762,54.1795 2.2392,42.5365 c -1.401,-1.44 -2.202,-3.36 -2.239,-5.37 0.104,-1.091 0.406,-2.154 0.891,-3.136 l 10.764,-22.389 z"
         id="Fill-1"
         fill="#01579b" /><path
         d="M 53.7287,13.887 42.0857,2.244 c -1.011,-1.017 -3.13,-2.239 -4.924,-2.239 -1.397,-0.048 -2.783,0.26 -4.027,0.897 l -21.48,10.739 z"
         id="Fill-3"
         fill="#40c4ff" /><polygon
         id="Fill-5"
         fill="#40c4ff"
         points="15.6755,55.9673 27.7585,68.0613 55.9685,68.0613 55.9685,55.9673 34.9225,49.2543 " /><path
         d="m 11.655,47.9124 c 0,3.612 0.451,4.479 2.239,6.273 l 1.806,1.806 H 55.992 L 36.271,33.5904 11.655,11.6474 Z"
         id="Fill-7"
         fill="#29b6f6" /><path
         d="m 47.4557,11.6414 h -35.801 l 44.325,44.326 h 12.089 v -27.759 l -14.34,-14.321 c -2.011,-2.023 -3.798,-2.246 -6.273,-2.246"
         id="Fill-9"
         fill="#01579b" /><path
         d="m 14.3278,54.6306 c -1.806,-1.806 -2.24,-3.57 -2.24,-6.718 v -35.82 l -0.433,-0.451 v 36.265 c 0,3.154 0,4.021 2.691,6.724 l 1.348,1.343 z"
         id="Fill-11"
         fill="#ffffff" /><polygon
         id="Fill-13"
         fill="#263238"
         points="55.517,55.5214 55.968,55.9674 68.063,55.9674 68.063,28.2144 67.611,27.7634 67.611,55.5214 " /><path
         d="m 53.7287,13.887 c -2.221,-2.221 -4.039,-2.246 -6.718,-2.246 h -35.356 l 0.451,0.452 h 34.917 c 1.331,0 4.707,-0.223 6.712,1.806 z"
         id="Fill-15"
         fill="#ffffff" /><path
         d="m 124.2932,50.4783 c 1.686,-1.038 3.026,-2.507 4.021,-4.41 0.994,-1.902 1.492,-4.108 1.492,-6.616 0,-2.507 -0.498,-4.712 -1.492,-6.615 -0.995,-1.902 -2.335,-3.373 -4.021,-4.41 -1.687,-1.038 -3.481,-1.557 -5.383,-1.557 -1.946,0 -3.752,0.519 -5.416,1.557 -1.665,1.037 -3.006,2.508 -4.021,4.41 -1.016,1.903 -1.524,4.108 -1.524,6.615 0,2.508 0.508,4.714 1.524,6.616 1.015,1.903 2.356,3.372 4.021,4.41 1.664,1.038 3.47,1.556 5.416,1.556 1.902,0 3.696,-0.518 5.383,-1.556 z m -21.598,-27.564 h 5.254 v 4.929 h 0.259 c 0.994,-1.686 2.497,-3.102 4.508,-4.248 2.011,-1.145 4.269,-1.719 6.777,-1.719 2.984,0 5.675,0.757 8.075,2.27 2.4,1.514 4.291,3.61 5.675,6.291 1.383,2.682 2.075,5.686 2.075,9.015 0,3.373 -0.692,6.389 -2.075,9.048 -1.384,2.659 -3.275,4.745 -5.675,6.259 -2.4,1.512 -5.091,2.269 -8.075,2.269 -2.508,0 -4.766,-0.573 -6.777,-1.718 -2.011,-1.145 -3.514,-2.54 -4.508,-4.184 h -0.259 l 0.259,4.54 v 14.333 h -5.513 z"
         id="Fill-17"
         fill="#ffffff" /><path
         d="m 143.0041,53.5266 c -2.097,-2.335 -3.146,-5.599 -3.146,-9.794 v -20.818 h 5.513 v 19.975 c 0,3.157 0.714,5.47 2.141,6.94 1.427,1.47 3.35,2.205 5.772,2.205 1.859,0 3.512,-0.496 4.962,-1.491 1.447,-0.995 2.571,-2.291 3.372,-3.892 0.8,-1.599 1.2,-3.286 1.2,-5.059 v -18.678 h 5.513 v 33.076 h -5.253 v -4.799 h -0.26 c -0.908,1.644 -2.357,3.027 -4.345,4.151 -1.99,1.123 -4.109,1.686 -6.356,1.686 -3.979,0 -7.016,-1.168 -9.113,-3.502"
         id="Fill-19"
         fill="#ffffff" /><path
         d="m 196.8024,50.4783 c 1.687,-1.038 3.026,-2.507 4.021,-4.41 0.995,-1.902 1.492,-4.108 1.492,-6.616 0,-2.507 -0.497,-4.712 -1.492,-6.615 -0.995,-1.902 -2.334,-3.373 -4.021,-4.41 -1.686,-1.038 -3.481,-1.557 -5.383,-1.557 -1.946,0 -3.752,0.519 -5.416,1.557 -1.664,1.037 -3.005,2.508 -4.021,4.41 -1.016,1.903 -1.524,4.108 -1.524,6.615 0,2.508 0.508,4.714 1.524,6.616 1.016,1.903 2.357,3.372 4.021,4.41 1.664,1.038 3.47,1.556 5.416,1.556 1.902,0 3.697,-0.518 5.383,-1.556 m -11.577,4.832 c -2.01,-1.145 -3.513,-2.54 -4.507,-4.184 h -0.26 v 4.865 h -5.253 V 9.5543 h 5.513 v 13.684 l -0.26,4.605 h 0.26 c 0.994,-1.686 2.497,-3.102 4.507,-4.248 2.011,-1.145 4.269,-1.719 6.778,-1.719 2.983,0 5.675,0.757 8.074,2.27 2.4,1.514 4.291,3.61 5.676,6.291 1.383,2.682 2.075,5.686 2.075,9.015 0,3.373 -0.692,6.389 -2.075,9.048 -1.385,2.659 -3.276,4.745 -5.676,6.259 -2.399,1.512 -5.091,2.269 -8.074,2.269 -2.509,0 -4.767,-0.573 -6.778,-1.718"
         id="Fill-21"
         fill="#ffffff" /><path
         d="m 213.632,54.7913 c -0.8,-0.8 -1.2,-1.784 -1.2,-2.951 0,-1.124 0.4,-2.086 1.2,-2.886 0.8,-0.8 1.784,-1.2 2.951,-1.2 1.168,0 2.151,0.4 2.951,1.2 0.8,0.8 1.2,1.762 1.2,2.886 0,1.167 -0.4,2.151 -1.2,2.951 -0.8,0.801 -1.783,1.2 -2.951,1.2 -1.167,0 -2.151,-0.399 -2.951,-1.2"
         id="Fill-23"
         fill="#ffffff" /><path
         d="m 247.1638,50.4783 c 1.664,-1.038 3.004,-2.507 4.021,-4.41 1.015,-1.902 1.524,-4.108 1.524,-6.616 0,-2.507 -0.509,-4.712 -1.524,-6.615 -1.017,-1.902 -2.357,-3.373 -4.021,-4.41 -1.666,-1.038 -3.471,-1.557 -5.416,-1.557 -1.903,0 -3.697,0.519 -5.383,1.557 -1.686,1.037 -3.038,2.519 -4.054,4.443 -1.016,1.923 -1.523,4.118 -1.523,6.582 0,2.464 0.507,4.66 1.523,6.583 1.016,1.924 2.368,3.405 4.054,4.443 1.686,1.038 3.48,1.556 5.383,1.556 1.945,0 3.75,-0.518 5.416,-1.556 m -14.074,4.281 c -2.4,-1.514 -4.292,-3.6 -5.675,-6.259 -1.385,-2.659 -2.076,-5.675 -2.076,-9.048 0,-3.329 0.691,-6.333 2.076,-9.015 1.383,-2.681 3.275,-4.777 5.675,-6.291 2.4,-1.513 5.091,-2.27 8.074,-2.27 2.507,0 4.756,0.574 6.745,1.719 1.988,1.146 3.503,2.562 4.541,4.248 h 0.259 l -0.259,-4.605 V 9.5543 h 5.512 v 46.437 h -5.253 v -4.865 h -0.259 c -1.038,1.644 -2.553,3.039 -4.541,4.184 -1.989,1.145 -4.238,1.718 -6.745,1.718 -2.983,0 -5.674,-0.757 -8.074,-2.269"
         id="Fill-25"
         fill="#ffffff" /><path
         d="m 288.7687,35.9505 c -0.087,-1.383 -0.476,-2.767 -1.167,-4.151 -0.692,-1.383 -1.773,-2.551 -3.243,-3.502 -1.47,-0.951 -3.33,-1.427 -5.577,-1.427 -2.595,0 -4.8,0.833 -6.616,2.497 -1.816,1.665 -3.006,3.859 -3.567,6.583 z m -18.03,18.809 c -2.508,-1.514 -4.465,-3.601 -5.869,-6.259 -1.406,-2.659 -2.108,-5.653 -2.108,-8.983 0,-3.155 0.658,-6.085 1.978,-8.788 1.318,-2.701 3.199,-4.853 5.642,-6.453 2.443,-1.599 5.242,-2.4 8.4,-2.4 3.242,0 6.052,0.724 8.431,2.173 2.377,1.449 4.204,3.448 5.48,5.999 1.275,2.551 1.913,5.47 1.913,8.756 0,0.519 -0.043,1.081 -0.129,1.686 h -26.203 c 0.13,2.508 0.735,4.627 1.817,6.356 1.079,1.729 2.453,3.027 4.118,3.891 1.664,0.865 3.405,1.297 5.221,1.297 4.323,0 7.589,-1.988 9.793,-5.966 l 4.671,2.269 c -1.385,2.638 -3.309,4.746 -5.773,6.324 -2.465,1.578 -5.427,2.367 -8.886,2.367 -3.156,0 -5.988,-0.757 -8.496,-2.269 z"
         id="Fill-27"
         fill="#ffffff" /><polygon
         id="Fill-29"
         fill="#ffffff"
         points="314.3864,55.9913 308.8094,55.9913 295.4484,22.9143 301.3504,22.9143 311.5974,49.5053 311.7284,49.5053 322.1044,22.9143 327.8774,22.9143 " /></g><text
       xml:space="preserve"
       transform="scale(0.26458333)"
       id="text356"
       style="white-space:pre;shape-inside:url(#rect358);display:inline;fill:#ffffff" /><text
       xml:space="preserve"
       transform="scale(0.26458333)"
       id="text378"
       style="font-size:66.6667px;white-space:pre;shape-inside:url(#rect380);display:inline;fill:#ffffff" /><text
       xml:space="preserve"
       style="font-size:17.6389px;fill:#40c4ff;fill-opacity:1;stroke-width:0.264583"
       x="785.28815"
       y="193.80508"
       id="text386"><tspan
         sodipodi:role="line"
         id="tspan384"
         style="fill:#40c4ff;fill-opacity:1;stroke-width:0.264583"
         x="785.28815"
         y="193.80508" /></text><g
       id="Layer_1"
       transform="matrix(1.5335859,0,0,1.5335859,761.4332,109.12136)"><g
         id="g4937"><linearGradient
           id="linearGradient6261"
           gradientUnits="userSpaceOnUse"
           x1="64"
           x2="64"
           y1="20.7166"
           y2="108.7021"><stop
             offset="0.4506"
             style="stop-color:#FEE133"
             id="stop6253" /><stop
             offset="0.5441"
             style="stop-color:#FDD831"
             id="stop6255" /><stop
             offset="0.6975"
             style="stop-color:#FABF2A"
             id="stop6257" /><stop
             offset="0.837"
             style="stop-color:#F6A323"
             id="stop6259" /></linearGradient><path
           d="M 64,120.89 C 36.07,120.89 6,103.4 6,65 6,26.6 36.07,9.11 64,9.11 c 15.48,0 29.81,5.12 40.36,14.43 C 115.9,33.72 122,48.06 122,65 c 0,16.86 -6.1,31.17 -17.64,41.39 -10.58,9.35 -24.91,14.5 -40.36,14.5 z"
           style="fill:url(#SVGID_3_)"
           id="path4933" /><path
           d="m 64,11.11 v 0 c 14.99,0 28.86,4.95 39.03,13.93 11.1,9.79 16.97,23.61 16.97,39.96 0,16.27 -5.87,30.07 -16.97,39.89 -10.21,9.03 -24.07,14 -39.03,14 -15.04,0 -28.9,-4.91 -39.04,-13.82 C 13.86,95.32 8,81.46 8,65 8,48.46 13.86,34.58 24.96,24.85 35.07,15.99 48.93,11.11 64,11.11 m 0,-4 v 0 0 0 c -31.15,0 -60,20 -60,57.89 0,37.68 28.85,57.89 60,57.89 v 0 0 0 c 31.15,0 60,-20.73 60,-57.89 C 124,27.63 95.15,7.11 64,7.11 Z"
           style="fill:#eb8f00"
           id="path4935" /></g><path
         d="M 39.64,10.69 C 39.19,9.93 39.12,9.02 39.47,8.25 39.82,7.49 40.52,6.97 41.45,6.8 c 5.29,-0.9 10.95,0.39 15.54,3.53 1.71,1.16 3.22,2.56 4.48,4.15 0.09,0.12 0.16,0.22 0.22,0.33 0.67,1.13 0.46,2.43 -0.52,3.25 -0.89,0.74 -2.41,0.96 -3.58,-0.06 l 0.41,-0.68 -0.51,0.6 c -4.31,-3.64 -9.98,-5.79 -15.54,-5.91 -0.97,-0.02 -1.82,-0.5 -2.31,-1.32 z"
         style="fill:#eb8f00;stroke:#eb8f00;stroke-miterlimit:10"
         id="path4939" /><path
         d="m 90.67,18.28 c 0.81,0.36 1.39,1.07 1.55,1.89 0.16,0.82 -0.11,1.65 -0.77,2.33 -3.8,3.8 -9.16,6.02 -14.72,6.11 -2.07,0.04 -4.11,-0.23 -6.06,-0.8 -0.14,-0.04 -0.26,-0.09 -0.37,-0.14 -1.2,-0.53 -1.78,-1.72 -1.45,-2.95 0.3,-1.12 1.41,-2.18 2.96,-2.02 l 0.06,0.8 0.07,-0.79 c 5.62,0.47 11.49,-1.04 16.09,-4.16 0.79,-0.56 1.76,-0.66 2.64,-0.27 z"
         style="fill:#eb8f00;stroke:#eb8f00;stroke-miterlimit:10"
         id="path4941" /><path
         d="m 76.11,69.49 c -0.32,-0.06 -0.62,-0.21 -0.87,-0.43 -4.26,-3.68 -9.59,-6.3 -15.51,-7.63 -5.91,-1.33 -11.85,-1.26 -17.28,0.24 -0.32,0.09 -0.66,0.09 -0.97,0.01 v 0 c -0.69,-0.18 -1.23,-0.75 -1.36,-1.46 -0.13,-0.69 0.16,-1.38 0.75,-1.79 5.92,-4.08 13.28,-5.47 20.4,-3.86 7.12,1.6 13.18,6.01 16.77,12.24 0.36,0.62 0.33,1.37 -0.09,1.94 -0.41,0.59 -1.14,0.87 -1.84,0.74 z"
         style="fill:#242424"
         id="path4943" /><g
         id="g4962"><linearGradient
           id="linearGradient6281"
           gradientUnits="userSpaceOnUse"
           x1="14.6154"
           x2="46.992298"
           y1="115.8002"
           y2="64.922203"><stop
             offset="7.605441e-03"
             style="stop-color:#F6A323"
             id="stop6269" /><stop
             offset="0.0255"
             style="stop-color:#F7A724"
             id="stop6271" /><stop
             offset="0.1452"
             style="stop-color:#FAC12B"
             id="stop6273" /><stop
             offset="0.2697"
             style="stop-color:#FCD32F"
             id="stop6275" /><stop
             offset="0.4008"
             style="stop-color:#FEDE32"
             id="stop6277" /><stop
             offset="0.5494"
             style="stop-color:#FEE133"
             id="stop6279" /></linearGradient><path
           d="m 27.2,123.52 c -4.08,0 -7.68,-1.15 -11.01,-3.52 C 9.97,115.57 8.91,108.29 7.99,101.87 7.47,98.29 7.88,96.02 8.24,94.02 8.62,91.9 8.95,90.06 8.16,86.61 7.98,85.83 7.44,84.6 6.93,83.41 5.47,80.06 3.81,76.26 5.83,73.81 c 1.07,-1.3 2.92,-2.05 5.06,-2.05 1.93,0 3.77,0.63 5.04,1.73 2.73,2.36 4.02,4.88 5.52,10.8 0.61,2.42 1.45,3.15 2.78,3.66 0.27,0.11 0.59,0.16 0.97,0.16 1.51,0 4.02,-0.8 8.39,-2.67 1.65,-0.71 3.75,-1.73 5.97,-2.82 6.85,-3.36 14.62,-7.16 19.91,-7.16 0.87,0 1.67,0.1 2.38,0.31 2.45,0.71 4.11,2.35 4.57,4.49 0.45,2.14 -0.41,4.49 -2.2,6 -1.84,1.55 -9.99,5.37 -14.96,7.22 0.41,0.38 0.75,0.83 1.01,1.33 0.77,1.49 0.77,3.34 0,5.65 -0.15,0.44 -0.33,0.81 -0.52,1.11 1.43,1.78 1.81,3.93 1.1,6.25 -0.16,0.53 -0.38,0.96 -0.66,1.34 0.66,0.73 1.38,1.95 1.06,3.97 -0.75,4.69 -5.75,6.16 -12.67,8.19 -0.71,0.21 -1.44,0.42 -2.2,0.65 -3.47,1.05 -6.46,1.55 -9.18,1.55 z"
           style="fill:url(#SVGID_4_)"
           id="path4958" /><path
           d="m 10.88,73.78 c 1.35,0 2.76,0.4 3.73,1.24 2.4,2.08 3.48,4.24 4.89,9.78 0.76,2.98 2.01,4.27 4.01,5.04 0.5,0.19 1.05,0.29 1.68,0.29 1.92,0 4.64,-0.89 9.18,-2.82 6.48,-2.76 18.54,-9.82 25.09,-9.82 0.67,0 1.28,0.07 1.82,0.23 4.08,1.19 3.94,5.09 1.63,7.04 -1.59,1.34 -10.65,5.64 -15.59,7.31 -3.56,1.2 -4.25,1.6 -4.21,1.87 0.01,0.07 0.1,0.09 0.23,0.09 0.32,0 0.93,-0.12 1.62,-0.12 0.4,0 0.83,0.04 1.25,0.17 3.2,0.98 2.82,3.69 2.13,5.78 -0.5,1.5 -1.43,1.26 -1.28,2.01 0.06,0.32 0.73,0.55 0.95,0.81 0.98,1.12 1.5,2.61 0.89,4.57 -0.17,0.55 -0.37,0.88 -0.93,1.23 -0.53,0.33 -0.58,0.76 -0.17,1.23 0.53,0.61 1.77,1.03 1.44,3.12 -0.61,3.81 -5.67,4.91 -13.47,7.24 -3.19,0.96 -6.01,1.45 -8.58,1.45 -3.7,0 -6.86,-1.02 -9.85,-3.15 -5.33,-3.79 -6.37,-9.8 -7.38,-16.79 -1.01,-6.99 1.79,-8.2 0.13,-15.42 -0.69,-3 -4.56,-8.87 -2.74,-11.08 0.73,-0.85 2.1,-1.3 3.53,-1.3 m 0,-4 c -2.74,0 -5.15,1.01 -6.6,2.77 -2.8,3.4 -0.8,7.99 0.81,11.67 0.46,1.05 0.98,2.25 1.12,2.85 0.7,3.05 0.43,4.54 0.06,6.61 -0.37,2.04 -0.82,4.58 -0.26,8.49 0.99,6.82 2.1,14.55 9.03,19.48 3.68,2.61 7.66,3.89 12.17,3.89 2.91,0 6.09,-0.53 9.72,-1.62 0.76,-0.23 1.48,-0.44 2.19,-0.65 7.34,-2.16 13.14,-3.86 14.09,-9.8 0.31,-1.93 -0.1,-3.38 -0.68,-4.42 0.09,-0.22 0.16,-0.43 0.22,-0.62 0.77,-2.49 0.51,-4.92 -0.71,-7 0.04,-0.1 0.07,-0.2 0.11,-0.31 0.33,-0.98 1.28,-3.86 0.13,-6.66 4.91,-2.02 11.4,-5.11 13.22,-6.64 2.38,-2.01 3.48,-5.05 2.87,-7.94 -0.61,-2.88 -2.78,-5.07 -5.96,-6 -0.89,-0.26 -1.88,-0.39 -2.94,-0.39 -5.76,0 -13.75,3.91 -20.79,7.36 -2.19,1.07 -4.27,2.09 -5.87,2.77 -2.52,1.07 -6.05,2.5 -7.61,2.5 -0.15,0 -0.23,-0.02 -0.25,-0.02 -0.63,-0.24 -1.08,-0.41 -1.56,-2.29 -1.43,-5.64 -2.72,-8.85 -6.15,-11.82 -1.64,-1.41 -3.95,-2.21 -6.36,-2.21 z"
           style="fill:#eb8f00"
           id="path4960" /></g><path
         d="m 80.77,31.11 v 0 c 4.19,0 8,3.54 8,9.42 0,5.88 -3.81,9.42 -8,9.42 v 0 c -4.19,0 -8,-3.54 -8,-9.42 0,-5.88 3.81,-9.42 8,-9.42 z"
         style="fill:#242424"
         id="path4964" /><path
         d="m 46.14,22.03 v 0 c -4.19,0 -8,3.54 -8,9.42 0,5.88 3.81,9.42 8,9.42 v 0 c 4.19,0 8,-3.54 8,-9.42 0,-5.88 -3.8,-9.42 -8,-9.42 z"
         style="fill:#242424"
         id="path4966" /></g></g></svg>
